<mxfile host="app.diagrams.net" modified="2023-07-03T12:35:09.020Z" agent="Mozilla/5.0 (X11; Ubuntu; Linux x86_64; rv:109.0) Gecko/20100101 Firefox/114.0" etag="JvsqRV328z9Yg8_h0Sd_" version="21.5.2" type="device">
  <diagram name="Page-1" id="OM1SBGoYsVNHxoAnyyIE">
    <mxGraphModel dx="1360" dy="795" grid="1" gridSize="10" guides="1" tooltips="1" connect="1" arrows="1" fold="1" page="1" pageScale="1" pageWidth="850" pageHeight="1100" math="0" shadow="0">
      <root>
        <mxCell id="0" />
        <mxCell id="1" parent="0" />
        <mxCell id="bzwPeWyqtxPaKyMg7TEz-1" value="&lt;div style=&quot;font-size: 15px;&quot;&gt;Spring Service&lt;/div&gt;&lt;div style=&quot;font-size: 15px;&quot;&gt;(nicht erreichbar)&lt;br style=&quot;font-size: 15px;&quot;&gt;&lt;/div&gt;" style="rounded=0;whiteSpace=wrap;html=1;fillColor=#f8cecc;strokeColor=#b85450;fontSize=15;" vertex="1" parent="1">
          <mxGeometry x="560" y="410" width="120" height="60" as="geometry" />
        </mxCell>
        <mxCell id="bzwPeWyqtxPaKyMg7TEz-19" value="&lt;div style=&quot;font-size: 15px;&quot;&gt;Spring Application&lt;/div&gt;&lt;div style=&quot;font-size: 15px;&quot;&gt;mit Circuit Breaker&lt;br style=&quot;font-size: 15px;&quot;&gt;&lt;/div&gt;" style="rounded=0;whiteSpace=wrap;html=1;fontSize=15;" vertex="1" parent="1">
          <mxGeometry x="265" y="350" width="170" height="170" as="geometry" />
        </mxCell>
        <mxCell id="bzwPeWyqtxPaKyMg7TEz-55" value="" style="endArrow=classic;html=1;rounded=0;entryX=0;entryY=0.25;entryDx=0;entryDy=0;exitX=1.006;exitY=0.441;exitDx=0;exitDy=0;exitPerimeter=0;fontSize=15;" edge="1" parent="1" source="bzwPeWyqtxPaKyMg7TEz-19" target="bzwPeWyqtxPaKyMg7TEz-1">
          <mxGeometry width="50" height="50" relative="1" as="geometry">
            <mxPoint x="400" y="440" as="sourcePoint" />
            <mxPoint x="450" y="390" as="targetPoint" />
          </mxGeometry>
        </mxCell>
        <mxCell id="bzwPeWyqtxPaKyMg7TEz-56" value="Anfrage" style="edgeLabel;html=1;align=center;verticalAlign=middle;resizable=0;points=[];fontSize=15;" vertex="1" connectable="0" parent="bzwPeWyqtxPaKyMg7TEz-55">
          <mxGeometry x="-0.0883" y="-3" relative="1" as="geometry">
            <mxPoint x="8" as="offset" />
          </mxGeometry>
        </mxCell>
        <mxCell id="bzwPeWyqtxPaKyMg7TEz-57" value="" style="endArrow=classic;html=1;rounded=0;exitX=0;exitY=0.75;exitDx=0;exitDy=0;fillColor=#f8cecc;strokeColor=#b85450;fontSize=15;entryX=0.994;entryY=0.618;entryDx=0;entryDy=0;entryPerimeter=0;" edge="1" parent="1" source="bzwPeWyqtxPaKyMg7TEz-1" target="bzwPeWyqtxPaKyMg7TEz-19">
          <mxGeometry width="50" height="50" relative="1" as="geometry">
            <mxPoint x="400" y="440" as="sourcePoint" />
            <mxPoint x="440" y="455" as="targetPoint" />
          </mxGeometry>
        </mxCell>
        <mxCell id="bzwPeWyqtxPaKyMg7TEz-59" value="" style="endArrow=classic;html=1;rounded=0;fontSize=15;entryX=0;entryY=0.435;entryDx=0;entryDy=0;entryPerimeter=0;" edge="1" parent="1" target="bzwPeWyqtxPaKyMg7TEz-19">
          <mxGeometry width="50" height="50" relative="1" as="geometry">
            <mxPoint x="150" y="424" as="sourcePoint" />
            <mxPoint x="337" y="520" as="targetPoint" />
          </mxGeometry>
        </mxCell>
        <mxCell id="bzwPeWyqtxPaKyMg7TEz-60" value="Anfrage" style="edgeLabel;html=1;align=center;verticalAlign=middle;resizable=0;points=[];fontSize=15;" vertex="1" connectable="0" parent="bzwPeWyqtxPaKyMg7TEz-59">
          <mxGeometry x="0.0747" y="1" relative="1" as="geometry">
            <mxPoint x="-12" y="-3" as="offset" />
          </mxGeometry>
        </mxCell>
        <mxCell id="bzwPeWyqtxPaKyMg7TEz-62" value="" style="endArrow=classic;html=1;rounded=0;exitX=-0.006;exitY=0.6;exitDx=0;exitDy=0;exitPerimeter=0;fontSize=15;" edge="1" parent="1" source="bzwPeWyqtxPaKyMg7TEz-19">
          <mxGeometry width="50" height="50" relative="1" as="geometry">
            <mxPoint x="400" y="440" as="sourcePoint" />
            <mxPoint x="150" y="452" as="targetPoint" />
          </mxGeometry>
        </mxCell>
        <mxCell id="bzwPeWyqtxPaKyMg7TEz-64" value="Fallback" style="edgeLabel;html=1;align=center;verticalAlign=middle;resizable=0;points=[];fontSize=15;" vertex="1" connectable="0" parent="bzwPeWyqtxPaKyMg7TEz-62">
          <mxGeometry x="0.0372" y="2" relative="1" as="geometry">
            <mxPoint x="-5" y="-1" as="offset" />
          </mxGeometry>
        </mxCell>
        <mxCell id="bzwPeWyqtxPaKyMg7TEz-67" value="&lt;div style=&quot;font-size: 13px;&quot;&gt;&lt;font style=&quot;font-size: 15px;&quot;&gt;Nutzer&lt;/font&gt;&lt;/div&gt;" style="shape=umlActor;verticalLabelPosition=bottom;verticalAlign=top;html=1;outlineConnect=0;" vertex="1" parent="1">
          <mxGeometry x="100" y="400" width="30" height="60" as="geometry" />
        </mxCell>
      </root>
    </mxGraphModel>
  </diagram>
</mxfile>
